<svg width="20" height="20" viewBox="0 0 20 20" fill="none" xmlns="http://www.w3.org/2000/svg">
<g clip-path="url(#clip0_10135_2215)">
<circle cx="9.99993" cy="9.99999" r="6.273" fill="#FFE372"/>
<path d="M9.95998 5.1205e-05C7.98491 0.00795727 6.05641 0.600555 4.41771 1.70311C2.77901 2.80566 1.5035 4.36878 0.752051 6.19533C0.000600767 8.02187 -0.193133 10.03 0.195283 11.9666C0.5837 13.9031 1.53687 15.6812 2.93458 17.0767C4.33229 18.4722 6.11194 19.4225 8.04907 19.8078C9.9862 20.1932 11.9941 19.9962 13.8194 19.2419C15.6448 18.4875 17.2058 17.2095 18.3058 15.569C19.4057 13.9286 19.9952 11.9991 20 10.0241C20.0021 8.70574 19.7437 7.4 19.2397 6.18184C18.7357 4.96367 17.996 3.85708 17.0631 2.92564C16.1301 1.99419 15.0224 1.25624 13.8034 0.75418C12.5844 0.252118 11.2783 -0.00416572 9.95998 5.1205e-05ZM12 1.05605C13.8188 1.47228 15.4678 2.43213 16.728 3.80805L14.576 5.04805C13.8402 4.35915 12.9602 3.84266 12 3.53605V1.05605ZM7.99998 1.05605V3.51205C7.00908 3.81477 6.10057 4.34017 5.34398 5.04805L3.19998 3.80805C4.47718 2.41363 6.15336 1.44704 7.99998 1.04005V1.05605ZM1.18398 12.8001C0.618448 11.0035 0.618448 9.0766 1.18398 7.28006L3.33598 8.52006C3.10098 9.51706 3.10098 10.555 3.33598 11.5521L1.18398 12.8001ZM7.99998 19.0081C6.15336 18.6011 4.47718 17.6345 3.19998 16.2401L5.34398 15.0001C6.10057 15.7079 7.00908 16.2333 7.99998 16.5361V19.0081ZM3.99998 10.0241C3.99998 8.83737 4.35187 7.67733 5.01116 6.69063C5.67045 5.70394 6.60752 4.9349 7.70388 4.48078C8.80024 4.02665 10.0066 3.90783 11.1705 4.13934C12.3344 4.37085 13.4035 4.9423 14.2426 5.78141C15.0817 6.62053 15.6532 7.68963 15.8847 8.85351C16.1162 10.0174 15.9974 11.2238 15.5433 12.3202C15.0891 13.4165 14.3201 14.3536 13.3334 15.0129C12.3467 15.6722 11.1867 16.0241 9.99998 16.0241C8.40933 16.0219 6.88444 15.3891 5.75968 14.2644C4.63492 13.1396 4.00209 11.6147 3.99998 10.0241ZM12 18.9921V16.5121C12.9602 16.2055 13.8402 15.689 14.576 15.0001L16.72 16.2401C15.4619 17.6146 13.8159 18.5743 12 18.9921ZM16.584 11.5441C16.819 10.5471 16.819 9.50906 16.584 8.51206L18.736 7.27206C19.2998 9.06613 19.2998 10.99 18.736 12.7841L16.584 11.5441Z" fill="#FACC15"/>
<path d="M6 8.5H7.44225C7.47699 8.5 7.50808 8.52155 7.52028 8.55407L8.90149 12.2373C8.9306 12.3149 9.04288 12.307 9.06086 12.2261L9.91865 8.36607C9.93799 8.27906 10.062 8.27906 10.0813 8.36607L10.9391 12.2261C10.9571 12.307 11.0694 12.3149 11.0985 12.2373L12.4797 8.55407C12.4919 8.52155 12.523 8.5 12.5578 8.5H14" stroke="url(#paint0_linear_10135_2215)" stroke-width="0.833333" stroke-linecap="round"/>
</g>
<defs>
<linearGradient id="paint0_linear_10135_2215" x1="10" y1="8" x2="10" y2="12.5" gradientUnits="userSpaceOnUse">
<stop stop-color="#1B1F26"/>
<stop offset="1" stop-color="#2B303B"/>
</linearGradient>
<clipPath id="clip0_10135_2215">
<rect width="20" height="20" fill="white"/>
</clipPath>
</defs>
</svg>
