<svg viewBox="0 0 16 8" fill="none" xmlns="http://www.w3.org/2000/svg">
<path d="M12.25 0C11.1956 0 10.2431 0.435 9.56188 1.13531L8.65375 2.06875L9.63563 3.07781L10.5706 2.11656C10.9966 1.67875 11.5922 1.40625 12.25 1.40625C13.5422 1.40625 14.5938 2.45781 14.5938 3.75031C14.5938 5.0425 13.5422 6.09406 12.25 6.09406C11.5922 6.09406 10.9966 5.82156 10.5706 5.38344C9.19312 3.96741 7.81561 2.55136 6.43813 1.13531C5.75688 0.435 4.80438 0 3.75 0C1.67906 0 0 1.67906 0 3.75031C0 5.82125 1.67906 7.50031 3.75 7.50031C4.80438 7.50031 5.75688 7.06531 6.43813 6.365L7.34625 5.43156L6.36437 4.4225L5.42938 5.38344C5.00344 5.82156 4.40781 6.09406 3.75 6.09406C2.45781 6.09406 1.40625 5.0425 1.40625 3.75031C1.40625 2.45781 2.45781 1.40625 3.75 1.40625C4.40781 1.40625 5.00344 1.67875 5.42938 2.11656L9.56188 6.365C10.2431 7.06531 11.1956 7.50031 12.25 7.50031C14.3209 7.50031 16 5.82125 16 3.75031C16 1.67906 14.3209 0 12.25 0Z" fill="currentColor"/>
</svg>
