<svg width="20" height="20" viewBox="0 0 20 20" fill="none" xmlns="http://www.w3.org/2000/svg">
<g clip-path="url(#clip0_6435_2572)">
<circle cx="9.99981" cy="9.99957" r="6.273" fill="#FFE372"/>
<path d="M9.95998 5.1205e-05C7.98491 0.00795727 6.05641 0.600555 4.41771 1.70311C2.77901 2.80566 1.5035 4.36878 0.752051 6.19533C0.000600767 8.02187 -0.193133 10.03 0.195283 11.9666C0.5837 13.9031 1.53687 15.6812 2.93458 17.0767C4.33229 18.4722 6.11194 19.4225 8.04907 19.8078C9.9862 20.1932 11.9941 19.9962 13.8194 19.2419C15.6448 18.4875 17.2058 17.2095 18.3058 15.569C19.4057 13.9286 19.9952 11.9991 20 10.0241C20.0021 8.70574 19.7437 7.4 19.2397 6.18184C18.7357 4.96367 17.996 3.85708 17.0631 2.92564C16.1301 1.99419 15.0224 1.25624 13.8034 0.75418C12.5844 0.252118 11.2783 -0.00416572 9.95998 5.1205e-05ZM12 1.05605C13.8188 1.47228 15.4678 2.43213 16.728 3.80805L14.576 5.04805C13.8402 4.35915 12.9602 3.84266 12 3.53605V1.05605ZM7.99998 1.05605V3.51205C7.00908 3.81477 6.10057 4.34017 5.34398 5.04805L3.19998 3.80805C4.47718 2.41363 6.15336 1.44704 7.99998 1.04005V1.05605ZM1.18398 12.8001C0.618448 11.0035 0.618448 9.0766 1.18398 7.28006L3.33598 8.52006C3.10098 9.51706 3.10098 10.555 3.33598 11.5521L1.18398 12.8001ZM7.99998 19.0081C6.15336 18.6011 4.47718 17.6345 3.19998 16.2401L5.34398 15.0001C6.10057 15.7079 7.00908 16.2333 7.99998 16.5361V19.0081ZM3.99998 10.0241C3.99998 8.83737 4.35187 7.67733 5.01116 6.69063C5.67045 5.70394 6.60752 4.9349 7.70388 4.48078C8.80024 4.02665 10.0066 3.90783 11.1705 4.13934C12.3344 4.37085 13.4035 4.9423 14.2426 5.78141C15.0817 6.62053 15.6532 7.68963 15.8847 8.85351C16.1162 10.0174 15.9974 11.2238 15.5433 12.3202C15.0891 13.4165 14.3201 14.3536 13.3334 15.0129C12.3467 15.6722 11.1867 16.0241 9.99998 16.0241C8.40933 16.0219 6.88444 15.3891 5.75968 14.2644C4.63492 13.1396 4.00209 11.6147 3.99998 10.0241ZM12 18.9921V16.5121C12.9602 16.2055 13.8402 15.689 14.576 15.0001L16.72 16.2401C15.4619 17.6146 13.8159 18.5743 12 18.9921ZM16.584 11.5441C16.819 10.5471 16.819 9.50906 16.584 8.51206L18.736 7.27206C19.2998 9.06613 19.2998 10.99 18.736 12.7841L16.584 11.5441Z" fill="#FACC15"/>
<path d="M6.07206 11.7909H7.54867C7.73052 11.7909 7.936 11.6891 8.01965 11.5209C8.12422 11.3099 8.22878 11.0981 8.33425 10.8871C8.50155 10.5507 8.66794 10.2134 8.83524 9.87697L8.94981 9.64511C8.61702 9.60147 8.28515 9.55782 7.95237 9.51509L8.08057 9.83696C8.18332 10.0952 8.28606 10.3534 8.38881 10.6107C8.51337 10.9244 8.63885 11.2381 8.76341 11.5518C8.8707 11.8218 8.9789 12.0919 9.08619 12.3619C9.13893 12.4938 9.19076 12.6247 9.24349 12.7565C9.2444 12.7584 9.24531 12.7602 9.24531 12.762C9.2635 12.8056 9.28168 12.8493 9.29986 12.892C9.33442 12.9557 9.38079 13.0066 9.4408 13.0448C9.53263 13.1157 9.65174 13.1675 9.77176 13.1621C9.86905 13.1575 9.96179 13.133 10.0473 13.0875C10.1646 13.0257 10.2646 12.8875 10.2982 12.7611L10.4373 12.2374C10.5473 11.8209 10.6574 11.4045 10.7674 10.989C10.9001 10.4862 11.0338 9.98335 11.1665 9.48054C11.282 9.04592 11.3966 8.61039 11.512 8.17578C11.5684 7.96392 11.6266 7.75207 11.6803 7.53931C11.6812 7.53658 11.6821 7.53385 11.6821 7.53113H10.6301L10.7501 7.91573C10.8456 8.22306 10.942 8.53129 11.0374 8.83861C11.1529 9.20958 11.2684 9.57965 11.3838 9.95062C11.4839 10.2725 11.5839 10.5944 11.6848 10.9162C11.7339 11.0726 11.7803 11.2299 11.8312 11.3854C11.8321 11.3872 11.8321 11.3899 11.833 11.3918C11.9048 11.6218 12.114 11.7918 12.3595 11.7918H13.9279C14.0679 11.7918 14.2143 11.7309 14.3134 11.6318C14.408 11.5372 14.4789 11.3818 14.4734 11.2463C14.4671 11.1054 14.4207 10.959 14.3134 10.8608C14.207 10.7617 14.0761 10.6998 13.9279 10.6998H12.3595C12.5349 10.8335 12.7104 10.9671 12.8859 11.0999L12.7659 10.7153C12.6704 10.408 12.574 10.0997 12.4786 9.79241C12.3631 9.42144 12.2476 9.05138 12.1322 8.68041C12.0321 8.35853 11.9321 8.03666 11.8312 7.71479C11.7821 7.5584 11.7357 7.4011 11.6848 7.24562C11.6839 7.24381 11.6839 7.24108 11.683 7.23926C11.6475 7.1247 11.583 7.02923 11.4875 6.95558C11.3957 6.88466 11.2766 6.83283 11.1565 6.83828C11.0592 6.84283 10.9665 6.86738 10.881 6.91284C10.7637 6.97467 10.6637 7.11288 10.6301 7.23926L10.491 7.76298C10.381 8.17941 10.2709 8.59585 10.1609 9.01137C10.0282 9.51418 9.89451 10.017 9.76176 10.5198C9.64629 10.9544 9.53172 11.3899 9.41625 11.8246C9.35987 12.0364 9.30168 12.2483 9.24804 12.461C9.24713 12.4638 9.24622 12.4665 9.24622 12.4692H10.2982L10.17 12.1473C10.0673 11.8891 9.96452 11.6309 9.86178 11.3736C9.73721 11.0599 9.61173 10.7462 9.48717 10.4325C9.37988 10.1625 9.27168 9.89242 9.16439 9.62238C9.11165 9.49054 9.05983 9.35961 9.00709 9.22777C9.00618 9.22595 9.00527 9.22413 9.00527 9.22231C8.96981 9.13412 8.93344 9.04956 8.86525 8.98136C8.82888 8.95318 8.7916 8.92408 8.75523 8.8959C8.69249 8.85589 8.62521 8.83407 8.55247 8.83134C8.50428 8.81861 8.45609 8.81861 8.40699 8.83134C8.35789 8.83134 8.31152 8.84407 8.2697 8.86862C8.16695 8.91226 8.05966 8.98864 8.00874 9.09138C7.90418 9.30233 7.79962 9.51418 7.69415 9.72512C7.52685 10.0615 7.36045 10.3989 7.19315 10.7353L7.07859 10.9671C7.23589 10.8771 7.39228 10.7871 7.54958 10.6971H6.07297C5.93295 10.6971 5.78656 10.758 5.68745 10.8571C5.59198 10.9544 5.52015 11.1099 5.52652 11.2454C5.53288 11.3863 5.57925 11.5327 5.68654 11.6309C5.79292 11.7291 5.92385 11.7909 6.07206 11.7909Z" fill="url(#paint0_linear_6435_2572)"/>
</g>
<defs>
<linearGradient id="paint0_linear_6435_2572" x1="9.99993" y1="6.83789" x2="9.99993" y2="13.1624" gradientUnits="userSpaceOnUse">
<stop stop-color="#1B1F26"/>
<stop offset="1" stop-color="#2B303B"/>
</linearGradient>
<clipPath id="clip0_6435_2572">
<rect width="20" height="20" fill="white"/>
</clipPath>
</defs>
</svg>
